<?xml version="1.0" standalone="no"?><!-- Generator: Gravit.io --><svg xmlns="http://www.w3.org/2000/svg" xmlns:xlink="http://www.w3.org/1999/xlink" style="isolation:isolate" viewBox="1180.143 548.575 95.857 26.361" width="95.857" height="26.361"><defs><clipPath id="_clipPath_eVxjDrhSdyJvYYP7jr4T1uwpsQLT2eOm"><rect x="1180.143" y="548.575" width="95.857" height="26.361"/></clipPath></defs><g clip-path="url(#_clipPath_eVxjDrhSdyJvYYP7jr4T1uwpsQLT2eOm)"><path d=" M 1184.438 556.786 L 1187.977 569.308 L 1188.185 570.591 L 1188.392 569.357 L 1191.917 556.786 L 1196.211 556.786 L 1190.125 574.59 L 1186.26 574.59 L 1180.143 556.786 L 1184.438 556.786 Z  M 1202.802 552.425 L 1206.919 552.425 L 1206.919 556.786 L 1212.902 556.786 L 1212.902 560.159 L 1206.919 560.159 L 1206.919 567.81 L 1206.919 567.81 Q 1206.919 568.781 1207.118 569.431 L 1207.118 569.431 L 1207.118 569.431 Q 1207.318 570.081 1207.689 570.468 L 1207.689 570.468 L 1207.689 570.468 Q 1208.059 570.855 1208.585 571.019 L 1208.585 571.019 L 1208.585 571.019 Q 1209.11 571.184 1209.762 571.184 L 1209.762 571.184 L 1209.762 571.184 Q 1210.236 571.184 1210.732 571.134 L 1210.732 571.134 L 1210.732 571.134 Q 1211.228 571.085 1211.68 571.011 L 1211.68 571.011 L 1211.68 571.011 Q 1212.131 570.937 1212.524 570.855 L 1212.524 570.855 L 1212.524 570.855 Q 1212.916 570.772 1213.198 570.69 L 1213.198 570.69 L 1213.598 573.833 L 1213.598 573.833 Q 1213.168 574.113 1212.591 574.318 L 1212.591 574.318 L 1212.591 574.318 Q 1212.013 574.524 1211.361 574.656 L 1211.361 574.656 L 1211.361 574.656 Q 1210.71 574.787 1210.006 574.861 L 1210.006 574.861 L 1210.006 574.861 Q 1209.303 574.935 1208.622 574.935 L 1208.622 574.935 L 1208.622 574.935 Q 1207.304 574.935 1206.23 574.549 L 1206.23 574.549 L 1206.23 574.549 Q 1205.156 574.162 1204.394 573.347 L 1204.394 573.347 L 1204.394 573.347 Q 1203.631 572.533 1203.216 571.274 L 1203.216 571.274 L 1203.216 571.274 Q 1202.802 570.015 1202.802 568.255 L 1202.802 568.255 L 1202.802 560.159 L 1199.144 560.159 L 1199.144 556.786 L 1202.802 556.786 L 1202.802 552.425 Z  M 1225.682 574.59 L 1221.55 574.59 L 1221.55 560.159 L 1217.344 560.159 L 1217.344 556.786 L 1221.55 556.786 L 1221.55 555.815 L 1221.55 555.815 Q 1221.55 554.054 1222.054 552.705 L 1222.054 552.705 L 1222.054 552.705 Q 1222.557 551.356 1223.49 550.434 L 1223.49 550.434 L 1223.49 550.434 Q 1224.423 549.513 1225.756 549.044 L 1225.756 549.044 L 1225.756 549.044 Q 1227.089 548.575 1228.733 548.575 L 1228.733 548.575 L 1228.733 548.575 Q 1229.251 548.575 1229.732 548.616 L 1229.732 548.616 L 1229.732 548.616 Q 1230.214 548.657 1230.673 548.723 L 1230.673 548.723 L 1230.673 548.723 Q 1231.132 548.789 1231.598 548.871 L 1231.598 548.871 L 1231.598 548.871 Q 1232.065 548.953 1232.568 549.052 L 1232.568 549.052 L 1232.302 552.639 L 1232.302 552.639 Q 1231.739 552.507 1231.028 552.409 L 1231.028 552.409 L 1231.028 552.409 Q 1230.317 552.31 1229.355 552.31 L 1229.355 552.31 L 1229.355 552.31 Q 1227.429 552.31 1226.556 553.215 L 1226.556 553.215 L 1226.556 553.215 Q 1225.682 554.12 1225.682 555.815 L 1225.682 555.815 L 1225.682 556.786 L 1231.458 556.786 L 1231.458 560.159 L 1225.682 560.159 L 1225.682 574.59 Z  M 1247.274 556.457 L 1247.274 556.457 L 1247.274 556.457 Q 1248.207 556.457 1248.999 556.596 L 1248.999 556.596 L 1248.999 556.596 Q 1249.792 556.736 1250.28 556.901 L 1250.28 556.901 L 1249.673 561.459 L 1249.673 561.459 Q 1248.859 561.245 1248.007 561.138 L 1248.007 561.138 L 1248.007 561.138 Q 1247.155 561.031 1246.385 561.031 L 1246.385 561.031 L 1246.385 561.031 Q 1244.653 561.031 1243.609 561.772 L 1243.609 561.772 L 1243.609 561.772 Q 1242.565 562.512 1242.046 563.894 L 1242.046 563.894 L 1242.046 574.59 L 1237.929 574.59 L 1237.929 556.786 L 1241.765 556.786 L 1241.957 559.698 L 1241.957 559.698 Q 1242.935 558.184 1244.297 557.32 L 1244.297 557.32 L 1244.297 557.32 Q 1245.66 556.457 1247.274 556.457 Z " fill-rule="evenodd" fill="rgb(0,0,0)"/><rect x="1256" y="548.575" width="20" height="26" transform="matrix(1,0,0,1,0,0)" fill="rgb(0,0,0)"/></g></svg>